<svg id="Capa_1" enable-background="new 0 0 512 512" height="512" viewBox="0 0 512 512" width="512" xmlns="http://www.w3.org/2000/svg"><path d="m105.438 361.438c0 83.02 67.541 150.562 150.562 150.562s150.562-67.542 150.562-150.562c.025-58.637-16.441-112.652-49.373-158.261 12.142-8.093 20.16-21.906 20.16-37.561 0-17.648-10.19-32.951-24.991-40.361 2.959-6.001 4.628-12.748 4.628-19.879 0-24.876-20.238-45.114-45.115-45.114h-10.747v-60.262h-90.25v60.261h-10.747c-24.877 0-45.115 20.238-45.115 45.114 0 7.131 1.67 13.878 4.628 19.879-14.8 7.41-24.991 22.713-24.991 40.361 0 15.659 8.023 29.475 20.171 37.568-32.939 45.604-49.408 99.621-49.382 158.255zm165.687-301.188h-30.25v-30.25h30.25zm-15.125 155.979c34.953 34.882 61.529 91.529 60.312 145.208 0 33.257-27.056 60.312-60.312 60.312s-60.312-27.056-60.312-60.312c-1.216-53.68 25.357-110.322 60.312-145.208zm-76.235-35.5c-8.334 0-15.114-6.78-15.114-15.114 0-8.335 6.78-15.115 15.114-15.115h152.471c8.334 0 15.114 6.78 15.114 15.115 0 8.334-6.78 15.114-15.114 15.114zm147.222-75.354c0 8.335-6.78 15.115-15.115 15.115h-111.744c-8.335 0-15.115-6.78-15.115-15.115 0-8.334 6.78-15.114 15.115-15.114h111.744c8.335 0 15.115 6.78 15.115 15.114zm-191.549 256.063c-.054-56.711 17.072-108.298 51.375-150.708h33.863c-35.021 42.165-55.3 97.44-54.988 150.708 0 49.799 40.514 90.312 90.312 90.312s90.312-40.514 90.312-90.312c.422-53.311-20.494-109.43-54.985-150.708h33.878c34.84 43.207 51.305 94.399 51.357 150.708 0 66.478-54.083 120.562-120.562 120.562s-120.562-54.084-120.562-120.562z"/></svg>