<svg id="Capa_1" enable-background="new 0 0 512 512" height="512" viewBox="0 0 512 512" width="512" xmlns="http://www.w3.org/2000/svg"><g><path d="m187.03 96.846c0 12.788 9.938 23.248 22.512 24.093h92.917c12.573-.846 22.512-11.306 22.512-24.093 0-13.34-10.815-24.155-24.155-24.155h-89.63c-13.342 0-24.156 10.815-24.156 24.155z"/><path d="m351.5 175.095c0-13.341-10.815-24.155-24.155-24.155h-142.69c-13.341 0-24.155 10.815-24.155 24.155 0 13.34 10.815 24.155 24.155 24.155h142.69c13.34 0 24.155-10.815 24.155-24.155z"/><path d="m357.822 219.833c-8.688 5.937-19.182 9.417-30.477 9.417h-37.446c21.81 29.893 46.099 77.033 46.099 138.753-.001 44.178-35.819 79.997-79.998 79.997s-79.997-35.819-79.997-79.997c0-61.72 24.288-108.86 46.099-138.753h-37.446c-11.296 0-21.792-3.481-30.481-9.42-23.703 36.502-42.172 85.145-42.172 148.173 0 79.53 64.467 143.997 143.997 143.997s143.997-64.467 143.997-143.997c0-63.024-18.47-111.668-42.175-148.17z"/><path d="m224 0h64v42.691h-64z"/></g></svg>