<svg id="_x31__x2C_5" enable-background="new 0 0 24 24" height="512" viewBox="0 0 24 24" width="512" xmlns="http://www.w3.org/2000/svg"><path d="m14.5 5.5h3v3h-3z" fill="#90a4ae"/><path d="m22.41 10.58c-.09-1.04-.96-1.83-1.99-1.83h-8.67v5.5h6.65c.49 0 .91.35.99.84l.87 5.32c.08.48.49.84.99.84h1c.55 0 1-.45 1-1v-.08z" fill="#607d8b"/><path d="m19.25 2.75h-8c-.28 0-.5.22-.5.5 0 .12.05.24.12.33l1.6 1.42c.18.16.42.25.66.25h6.12c.55 0 1-.45 1-1v-.5c0-.55-.45-1-1-1z" fill="#00bcd4"/><path d="m11.75 8.75h-1c-1.105 0-2 .895-2 2v1.5c0 1.105.895 2 2 2h1z" fill="#00bcd4"/><path d="m8.5 12.25h-6c-.414 0-.75-.336-.75-.75s.336-.75.75-.75h6c.414 0 .75.336.75.75s-.336.75-.75.75z"/><circle cx="1.5" cy="11.5" r="1.5"/><path d="m4.25 14c-.414 0-.75-.336-.75-.75v-3.25c0-.414.336-.75.75-.75s.75.336.75.75v3.25c0 .414-.336.75-.75.75z"/><path d="m6.25 15c-.414 0-.75-.336-.75-.75v-5.5c0-.414.336-.75.75-.75s.75.336.75.75v5.5c0 .414-.336.75-.75.75z"/><path d="m15.75 18c-.275 0-.54-.152-.671-.415-.185-.371-.035-.821.335-1.006 1.053-.526 1.586-1.309 1.586-2.329 0-.414.336-.75.75-.75s.75.336.75.75c0 1.589-.857 2.892-2.415 3.671-.107.054-.222.079-.335.079z"/><path d="m11.75 14.75c-.414 0-.75-.336-.75-.75v-5c0-.414.336-.75.75-.75s.75.336.75.75v5c0 .414-.336.75-.75.75z"/><path d="m14.75 9.25c-.414 0-.75-.336-.75-.75v-3c0-.414.336-.75.75-.75s.75.336.75.75v3c0 .414-.336.75-.75.75z"/><path d="m17.25 9.25c-.414 0-.75-.336-.75-.75v-3c0-.414.336-.75.75-.75s.75.336.75.75v3c0 .414-.336.75-.75.75z"/><circle cx="15" cy="11.5" r="1"/><circle cx="19" cy="11.5" r="1"/><path d="m19.25 6h-6.119c-.43 0-.843-.157-1.164-.443l-1.594-1.42c-.265-.296-.373-.587-.373-.887 0-.689.561-1.25 1.25-1.25h8c.965 0 1.75.785 1.75 1.75v.5c0 .965-.785 1.75-1.75 1.75zm-7.343-2.5 1.058.937c.046.041.105.063.166.063h6.119c.138 0 .25-.112.25-.25v-.5c0-.138-.112-.25-.25-.25z"/><path d="m22.25 22h-1c-.861 0-1.587-.616-1.727-1.465l-.875-5.326c-.021-.121-.124-.209-.247-.209h-7.651c-1.517 0-2.75-1.233-2.75-2.75v-1.5c0-1.517 1.233-2.75 2.75-2.75h9.667c1.437 0 2.615 1.08 2.739 2.511l.837 9.589c.003.022.007.128.007.15 0 .965-.785 1.75-1.75 1.75zm-11.5-12.5c-.689 0-1.25.561-1.25 1.25v1.5c0 .689.561 1.25 1.25 1.25h7.651c.861 0 1.587.617 1.727 1.466l.875 5.326c.02.119.125.208.247.208h1c.138 0 .25-.112.25-.25l-.838-9.608c-.057-.651-.592-1.142-1.245-1.142z"/></svg>