<svg id="color" enable-background="new 0 0 24 24" height="512" viewBox="0 0 24 24" width="512" xmlns="http://www.w3.org/2000/svg"><path d="m17.5 8.5h-3v-3h3z" fill="#90a4ae"/><path d="m19.25 6h-6.119c-.43 0-.843-.157-1.164-.443l-1.594-1.42c-.265-.296-.373-.587-.373-.887 0-.689.561-1.25 1.25-1.25h8c.965 0 1.75.785 1.75 1.75v.5c0 .965-.785 1.75-1.75 1.75z" fill="#00bcd4"/><path d="m16 6h-1.5v2.5h1.5z" fill="#7d8f97"/><path d="m16 2h-4.75c-.689 0-1.25.561-1.25 1.25 0 .3.108.591.373.887l1.594 1.42c.321.286.734.443 1.164.443h1.369 1.5z" fill="#00a4b9"/><path d="m15.079 17.585c-.197-.395-.091-.793.546-1.112.848-.423 1.375-1.275 1.375-2.223 0-.414.336-.75.75-.75s.75.336.75.75c0 1.52-.844 2.886-2.204 3.565-.484.243-.946.312-1.217-.23z" fill="#90a4ae"/><path d="m23.99 20.1-.83-9.59c-.13-1.43-1.31-2.51-2.74-2.51h-8.42v7h6.4c.12 0 .23.09.25.21l.87 5.33c.14.84.87 1.46 1.73 1.46h1c1.218 0 2.019-1.342 1.74-1.9z" fill="#607d8b"/><path d="m8.5 12.25h-6c-.414 0-.75-.336-.75-.75s.336-.75.75-.75h6c.414 0 .75.336.75.75s-.336.75-.75.75z" fill="#eceff1"/><g fill="#00bcd4"><path d="m3 11.5c0 .829-.671 1.5-1.5 1.5s-1.5-.671-1.5-1.5.671-1.5 1.5-1.5 1.5.671 1.5 1.5z"/><path d="m4.25 14c-.414 0-.75-.336-.75-.75v-3.25c0-.414.336-.75.75-.75s.75.336.75.75v3.25c0 .414-.336.75-.75.75z"/><path d="m6.25 15c-.414 0-.75-.336-.75-.75v-5.5c0-.414.336-.75.75-.75s.75.336.75.75v5.5c0 .414-.336.75-.75.75z"/></g><path d="m16 11.5c0 .552-.448 1-1 1s-1-.448-1-1 .448-1 1-1 1 .448 1 1z" fill="#fff"/><path d="m20 11.5c0 .552-.448 1-1 1s-1-.448-1-1 .448-1 1-1 1 .448 1 1z" fill="#fff"/><path d="m10.75 8c-1.52 0-2.75 1.23-2.75 2.75v1.5c0 1.52 1.23 2.75 2.75 2.75h1.25v-7z" fill="#00bcd4"/><path d="m18.4 15h-1.514c-.198.632-.645 1.166-1.26 1.474-.637.319-.744.717-.546 1.112.15.299.358.412.596.412.193 0 .405-.074.621-.182 1.131-.565 1.905-1.605 2.133-2.814-.01-.001-.02-.002-.03-.002z" fill="#7d8f97"/><path d="m23.246 11.5h-3.246c0 .552-.448 1-1 1s-1-.448-1-1h-2c0 .552-.448 1-1 1s-1-.448-1-1h-2v3.5h4.886 1.514c.01 0 .02.001.03.002.108.013.202.098.22.208l.87 5.33c.14.84.87 1.46 1.73 1.46h1c1.218 0 2.019-1.342 1.74-1.9z" fill="#546d79"/><path d="m3.5 11.5h-.5c0 .273-.073.529-.201.75h.701zm2 0h-.5v.75h.5zm2.5 0h-1v.75h1z" fill="#cdd0d2"/><path d="m3 11.5h-3c0 .829.671 1.5 1.5 1.5.555 0 1.04-.302 1.299-.75.128-.221.201-.477.201-.75z" fill="#00a4b9"/><path d="m5 11.5h-1.5v.75 1c0 .414.336.75.75.75s.75-.336.75-.75v-1z" fill="#00a4b9"/><path d="m7 11.5h-1.5v.75 2c0 .414.336.75.75.75s.75-.336.75-.75v-2z" fill="#00a4b9"/><path d="m16 11.5h-2c0 .552.448 1 1 1s1-.448 1-1z" fill="#dedede"/><path d="m20 11.5h-2c0 .552.448 1 1 1s1-.448 1-1z" fill="#dedede"/><path d="m12 11.5h-4v.75c0 1.52 1.23 2.75 2.75 2.75h1.25z" fill="#00a4b9"/></svg>