<svg id="color" height="512" viewBox="0 0 24 24" width="512" xmlns="http://www.w3.org/2000/svg"><path d="m5 3.5h6v3h-6z" fill="#607d8b"/><path d="m13 4h-10c-1.103 0-2-.897-2-2s.897-2 2-2h10c1.103 0 2 .897 2 2s-.897 2-2 2z" fill="#0097a7"/><path d="m21.5 10.75h-4c-.414 0-.75-.336-.75-.75s.336-.75.75-.75h4c.414 0 .75.336.75.75s-.336.75-.75.75z" fill="#607d8b"/><path d="m19.75 11.75c-.414 0-.75-.336-.75-.75v-2c0-.414.336-.75.75-.75s.75.336.75.75v2c0 .414-.336.75-.75.75z" fill="#00bcd4"/><path d="m23.25 12c-1.103 0-2-.897-2-2s.897-2 2-2c.414 0 .75.336.75.75s-.336.75-.75.75c-.275 0-.5.224-.5.5s.225.5.5.5c.414 0 .75.336.75.75s-.336.75-.75.75z" fill="#00bcd4"/><path d="m9.033 17.459c-.612 0-1.226-.111-1.812-.336-.387-.148-.58-.583-.432-.969.148-.387.586-.579.969-.431.98.377 2.067.302 2.986-.205.919-.506 1.563-1.386 1.77-2.415.081-.406.476-.674.883-.588.405.081.669.476.588.882-.292 1.463-1.209 2.714-2.517 3.434-.756.417-1.593.628-2.435.628z" fill="#607d8b"/><path d="m3.878 23.901-3.5-2c-.261-.149-.407-.438-.373-.737l.89-7.77c.043-.379.364-.665.745-.665h.002l7.16.02c.544.001.91.57.678 1.067l-4.55 9.75c-.187.399-.674.552-1.052.335z" fill="#607d8b"/><path d="m.653 13.397c-.863-1.302-.863-5.493 0-6.795.387-.584.877-.628 1.146-.602h12.201c2.206 0 4 1.794 4 4s-1.794 4-4 4h-12.201c-.486.047-.878-.198-1.146-.603z" fill="#00bcd4"/><path d="m10.25 9.25h-3.458c-.26-.446-.738-.75-1.292-.75-.828 0-1.5.671-1.5 1.5s.672 1.5 1.5 1.5c.554 0 1.032-.304 1.292-.75h3.458c.414 0 .75-.336.75-.75s-.336-.75-.75-.75z" fill="#fff"/><path d="m19 10h-1c0 .256-.024.507-.071.75h1.071zm2.25 0h-.75v.75h.896c-.094-.232-.146-.485-.146-.75z" fill="#546d79"/><path d="m20.5 10h-1.5v.75.25c0 .414.336.75.75.75s.75-.336.75-.75v-.25z" fill="#00a4b9"/><path d="m22.75 10h-1.5c0 .265.052.518.146.75.297.732 1.016 1.25 1.854 1.25.414 0 .75-.336.75-.75s-.336-.75-.75-.75c-.275 0-.5-.224-.5-.5z" fill="#00a4b9"/><path d="m13.826 14h-1.62c-.319.635-.824 1.166-1.461 1.518-.532.293-1.121.442-1.712.442-.178 0-.357-.013-.534-.041l-.653 1.398c.391.095.789.142 1.187.142.842 0 1.679-.211 2.436-.628 1.124-.619 1.959-1.63 2.357-2.831z" fill="#546d79"/><path d="m.865 13.657-.86 7.508c-.034.298.112.588.373.737l3.5 2c.379.217.866.062 1.052-.334l2.917-6.25.653-1.398.894-1.92h-7.595c-.04.004-.079.006-.118.006-.32 0-.595-.13-.816-.349z" fill="#546d79"/><path d="m18 10h-7c0 .414-.336.75-.75.75h-3.458c-.26.446-.738.75-1.292.75-.828 0-1.5-.671-1.5-1.5h-3.994c0 1.373.216 2.747.647 3.397.063.096.134.183.211.259.221.219.496.349.816.349.039 0 .078-.002.118-.006h7.595 2.812 1.62.175c1.95 0 3.577-1.402 3.929-3.25.047-.242.071-.493.071-.749z" fill="#00a4b9"/><path d="m11 10h-7c0 .829.672 1.5 1.5 1.5.554 0 1.032-.304 1.292-.75h3.458c.414 0 .75-.336.75-.75z" fill="#dedede"/></svg>