<svg id="Capa_1" enable-background="new 0 0 512 512" height="512" viewBox="0 0 512 512" width="512" xmlns="http://www.w3.org/2000/svg"><g><path d="m0 181h84.022c3.978 0 7.793 1.58 10.606 4.394l35.607 35.606h170.787v-140h-187c-58.328 0-106.649 43.651-114.022 100zm241.022-35c0-8.284 6.716-15 15-15s15 6.716 15 15v40c0 8.284-6.716 15-15 15s-15-6.716-15-15zm-60 0c0-8.284 6.716-15 15-15s15 6.716 15 15v40c0 8.284-6.716 15-15 15s-15-6.716-15-15z"/><path d="m40.001 320.57c1.671 37.432 5.445 71.877 11.028 99.793 9.638 48.192 23.3 70.637 42.993 70.637 18.796 0 32.006-20.3 41.575-63.885 5.226-23.803 9.084-53.464 11.29-86.115h-32.865c-26.851 0-52.225-7.431-74.021-20.43z"/><path d="m113.415 246.606-35.606-35.606h-77.809c7.373 56.349 55.694 100 114.022 100h187v-60h-177c-3.978 0-7.794-1.58-10.607-4.394z"/><path d="m376.022 21c-24.853 0-45 20.147-45 45v260c0 24.853 20.147 45 45 45 8.284 0 15-6.716 15-15v-320c0-8.284-6.716-15-15-15z"/><path d="m477 161c-13.961 0-26.01 8.176-31.627 20h-24.351v30h24.351c5.618 11.824 17.666 20 31.627 20 19.33 0 35-15.67 35-35s-15.67-35-35-35z"/><path d="m176.819 343.021c-1.138 16.839-2.715 32.962-4.674 47.979h6.877c16.569 0 30-13.431 30-30v-20h-32.066z"/><path d="m249.022 36c0-8.284-6.716-15-15-15h-60c-24.484 0-46.262 11.796-59.959 30h134.959z"/></g></svg>