<svg id="bold" height="512" viewBox="0 0 24 24" width="512" xmlns="http://www.w3.org/2000/svg"><path d="m10.25 9.25h-3.458c-.26-.446-.738-.75-1.292-.75-.828 0-1.5.672-1.5 1.5s.672 1.5 1.5 1.5c.554 0 1.032-.304 1.292-.75h3.458c.414 0 .75-.336.75-.75s-.336-.75-.75-.75z"/><path d="m23.25 9.5c.414 0 .75-.336.75-.75s-.336-.75-.75-.75c-.837 0-1.554.518-1.851 1.25h-.899v-.25c0-.414-.336-.75-.75-.75s-.75.336-.75.75v.25h-1.076c-.352-1.848-1.975-3.25-3.924-3.25h-3v-2h2c1.103 0 2-.897 2-2s-.897-2-2-2h-10c-1.103 0-2 .897-2 2s.897 2 2 2h2v2h-2.871c-.519-.102-1.048.106-1.405.583-.958 1.277-.958 5.557 0 6.834.046.061.099.11.15.162l-.869 7.586c-.034.298.112.588.373.737l3.5 2c.378.216.865.065 1.052-.334l2.921-6.259c1.364.313 2.628.104 3.74-.508 1.124-.619 1.966-1.617 2.405-2.8h.004c1.949 0 3.572-1.402 3.924-3.25h1.076v.249c0 .414.336.75.75.75s.75-.336.75-.75v-.25h.899c.297.732 1.014 1.25 1.851 1.25.414 0 .75-.336.75-.75s-.336-.75-.75-.75c-.275 0-.5-.224-.5-.5s.225-.5.5-.5zm-12.625 5.548c-.586.322-1.247.442-1.898.381l.667-1.429h2.364c-.289.428-.669.793-1.133 1.048zm3.375-3.048h-11.778c-.294-.852-.294-3.148 0-4h11.778c1.103 0 2 .897 2 2s-.897 2-2 2z"/></svg>