<svg height="512pt" viewBox="0 -23 512.00005 512" width="512pt" xmlns="http://www.w3.org/2000/svg"><path d="m279.605469 132.757812-22.464844-39.933593c-9.96875-18.277344-29.121094-29.648438-49.933594-29.648438h-89.554687c-21.800782 0-39.476563 17.675781-39.476563 39.480469v31.414062zm0 0" fill="#9eebfc"/><path d="m257.140625 92.824219c-9.96875-18.277344-29.121094-29.648438-49.933594-29.648438h-33.019531c20.8125 0 39.964844 11.371094 49.933594 29.648438l22.464844 39.933593-168.410157 1.097657v.214843l201.429688-1.3125zm0 0" fill="#77e4fc"/><path d="m375.929688 273.183594-18.609376 39.414062c-7.632812 16.167969-23.902343 26.480469-41.777343 26.480469h-115.894531c-18.503907 0-35.226563 11.042969-42.492188 28.066406l-34.339844 80.453125c-2.984375 6.996094-9.855468 11.53125-17.460937 11.53125h-57.601563c-13.324218 0-22.5-13.363281-17.71875-25.796875l62.460938-163.492187zm0 0" fill="#9eebfc"/><path d="m117.132812 367.144531-34.339843 80.453125c-2.984375 6.996094-9.855469 11.53125-17.460938 11.53125h40.023438c7.605469 0 14.476562-4.535156 17.460937-11.53125l34.339844-80.453125c7.265625-17.023437 23.988281-28.066406 42.492188-28.066406h-40.023438c-18.507812 0-35.226562 11.042969-42.492188 28.066406zm0 0" fill="#77e4fc"/><path d="m92.496094 269.839844-.179688.46875 243.589844 2.875-18.609375 39.414062c-7.632813 16.167969-23.902344 26.480469-41.777344 26.480469h40.023438c17.875 0 34.144531-10.3125 41.777343-26.480469l18.609376-39.414062zm0 0" fill="#77e4fc"/><path d="m372.589844 277.964844-285.949219 1.015625c-43.550781.15625-78.980469-35.023438-79.136719-78.570313v-.007812c-.152344-43.550782 35.023438-78.980469 78.574219-79.136719l285.953125-1.015625c43.550781-.15625 78.976562 35.023438 79.132812 78.574219v.007812c.15625 43.550781-35.023437 78.980469-78.574218 79.132813zm0 0" fill="#4172cc"/><path d="m372.03125 120.25-28.765625.101562c41.578125 2.0625 74.730469 36.351563 74.878906 78.472657v.007812c.15625 43.550781-35.023437 78.980469-78.574219 79.132813l-257.183593.914062c1.410156.070313 2.828125.109375 4.253906.101563l285.949219-1.015625c43.550781-.15625 78.730468-35.585938 78.574218-79.132813v-.007812c-.152343-43.550781-35.582031-78.726563-79.132812-78.574219zm0 0" fill="#3567c3"/><path d="m486.511719 181.320312v29.503907c0 5.664062-4.589844 10.257812-10.253907 10.257812h-240.492187c-11.382813 0-18.3125-12.53125-12.265625-22.175781l11.285156-17.980469c3.847656-6.136719 10.582032-9.863281 17.828125-9.863281h223.644531c5.664063 0 10.253907 4.59375 10.253907 10.257812zm0 0" fill="#ffe046"/><g fill="#ffd508"><path d="m476.257812 171.0625h-33.019531c5.664063 0 10.253907 4.59375 10.253907 10.257812v29.503907c0 5.664062-4.589844 10.257812-10.253907 10.257812h33.019531c5.664063 0 10.253907-4.59375 10.253907-10.257812v-29.503907c0-5.664062-4.589844-10.257812-10.253907-10.257812zm0 0"/><path d="m252.613281 171.0625c-7.246093 0-13.980469 3.726562-17.828125 9.863281l-11.285156 17.984375c-6.046875 9.640625.882812 22.171875 12.265625 22.171875h16.09375l33.78125-50.019531zm0 0"/><path d="m326.0625 171.0625-33.574219 50.019531h40.148438l32.367187-50.019531zm0 0"/></g><path d="m504.679688 188.566406h-10.660157v-7.246094c0-9.792968-7.96875-17.761718-17.761719-17.761718h-25.238281c-13.867187-30.632813-44.796875-50.8125-78.710937-50.8125-.101563 0-.203125 0-.304688 0l-95.265625.335937-13.007812-23.855469c-11.292969-20.695312-32.949219-33.554687-56.523438-33.554687h-89.554687c-25.90625 0-46.980469 21.078125-46.980469 46.984375v12.5625c-40.273437 7.421875-70.820313 42.84375-70.671875 85.214844.160156 44.898437 34.730469 81.757812 78.589844 85.6875l-29.058594 75.578125c-3.46875 9.027343 10.527344 14.449219 14.011719 5.386719l30.996093-80.628907 267.273438-.949219-11.28125 23.886719c-6.359375 13.472657-20.09375 22.175781-34.992188 22.175781h-115.890624c-21.546876 0-40.933594 12.808594-49.394532 32.625l-34.339844 80.457032c-1.808593 4.238281-5.953124 6.972656-10.558593 6.972656h-57.601563c-7.855468 0-13.546875-8.230469-10.714844-15.601562l10.730469-27.910157c3.472657-9.035156-10.535156-14.421875-14.007812-5.386719l-10.730469 27.914063c-6.5625 17.0625 6.503906 35.996094 24.722656 35.996094h57.601563c10.628906 0 20.191406-6.316407 24.363281-16.09375l18.453125-43.234375h29.515625l1.863281-.003906c30.316407-.109376 54.890625-24.863282 54.785157-55.179688l-.019532-5.542969h81.222656c20.675782 0 39.738282-12.082031 48.566407-30.78125l14.28125-30.25c.050781-.105469.085937-.207031.128906-.3125 16.617187-1.171875 32.3125-7.019531 45.703125-17.105469 13.320312-10.03125 23.585938-23.957031 29.269531-39.546874h22.765625c9.792969 0 17.761719-7.96875 17.761719-17.761719v-7.246094h10.664063c9.679687 0 9.679687-15.011719 0-15.011719zm-285.351563 163.609375c.078125 22.042969-17.789063 40.039063-39.832031 40.117188l-24.917969.003906 9.480469-22.207031c6.09375-14.28125 20.066406-23.507813 35.589844-23.507813h19.65625zm153.234375-81.714843-285.949219 1.015624c-.085937 0-.171875 0-.257812 0-39.222657 0-71.207031-31.839843-71.34375-71.101562-.140625-39.34375 31.753906-71.464844 71.09375-71.605469l55.945312-.199219c9.542969-.035156 9.53125-15.007812-.050781-15.007812l-55.949219.199219c-.125 0-.246093.007812-.371093.011719v-11.117188c0-17.632812 14.34375-31.976562 31.972656-31.976562h89.554687c18.078125 0 34.6875 9.863281 43.34375 25.734374l9.125 16.730469-62.644531.222657c-9.542969.035156-9.53125 15.011718.054688 15.011718l174.972656-.625c25.769531-.085937 49.492187 13.925782 62.117187 35.804688h-181.5625c-9.890625 0-18.929687 5-24.1875 13.378906l-11.28125 17.980469c-9.015625 14.367187 1.648438 33.667969 18.621094 33.667969h201.554687c-11.386718 25.277343-36.394531 41.773437-64.757812 41.875zm-66.246094-56.882813 23.339844-35.011719h22.167969l-23.339844 35.011719zm-70.550781 0c-5.285156 0-8.816406-6.042969-5.90625-10.683594l11.28125-17.980469c2.492187-3.976562 6.78125-6.347656 11.472656-6.347656h18.796875l-23.339844 35.011719zm53.679687-35.011719h22.171876l-23.339844 35.011719h-22.167969zm189.5625 32.257813c0 1.519531-1.234374 2.753906-2.75 2.753906h-129.734374l23.339843-35.011719h106.394531c1.515626 0 2.75 1.234375 2.75 2.753906zm0 0"/><path d="m263.597656 15.007812h119.070313c9.679687 0 9.679687-15.007812 0-15.007812h-119.070313c-9.679687 0-9.679687 15.007812 0 15.007812zm0 0"/><path d="m362.15625 58.535156c0 4.144532 3.359375 7.503906 7.503906 7.503906h135.082032c9.679687 0 9.679687-15.007812 0-15.007812h-135.082032c-4.144531 0-7.503906 3.359375-7.503906 7.503906zm0 0"/><path d="m387.671875 401.238281h-101.0625c-9.679687 0-9.679687 15.007813 0 15.007813h101.0625c9.679687 0 9.679687-15.007813 0-15.007813zm0 0"/><path d="m482.726562 331.195312h-61.035156c-9.679687 0-9.679687 15.007813 0 15.007813h61.035156c9.679688 0 9.679688-15.007813 0-15.007813zm0 0"/></svg>