<svg height="511pt" viewBox="1 -83 511.999 511" width="511pt" xmlns="http://www.w3.org/2000/svg"><path d="m52.644531 108.964844c-4.90625 2.535156-6.828125 8.570312-4.292969 13.476562 11.347657 21.945313 36.78125 36.128906 64.796876 36.128906h75.621093c39.085938 0 70.882813-27.316406 70.882813-60.890624 0-33.578126-31.796875-60.890626-70.882813-60.890626h-18.128906c-5.523437 0-10 4.476563-10 10 0 5.519532 4.476563 10 10 10h18.128906c28.054688 0 50.882813 18.34375 50.882813 40.890626 0 22.546874-22.828125 40.890624-50.882813 40.890624h-75.621093c-20.621094 0-39.082032-9.9375-47.03125-25.3125-2.535157-4.90625-8.570313-6.832031-13.472657-4.292968zm0 0"/><path d="m459.398438 45.078125c-16.105469 0-30.535157 7.28125-40.191407 18.714844l-32.410156-6.160157v-15.839843c0-5.519531-4.476563-10-10-10s-10 4.480469-10 10v12.035156l-12.460937-2.371094v-19.664062c0-5.519531-4.476563-10-10-10-5.523438 0-10 4.480469-10 10v15.863281l-52.484376-9.980469c-5.242187-6.699219-11.378906-12.746093-18.3125-17.917969-4.425781-3.304687-10.691406-2.394531-13.996093 2.03125-3.304688 4.425782-2.394531 10.691407 2.03125 13.996094 6.304687 4.703125 11.742187 10.207032 16.234375 16.316406.113281.175782.203125.363282.328125.535157 8.257812 11.453125 13.125 24.738281 14.25 38.742187.382812 4.824219.324219 9.675782-.183594 14.492188-4.105469 38.71875-36.949219 68.988281-76.738281 68.988281h-108.285156c-42.558594 0-77.179688-34.625-77.179688-77.179687 0-42.558594 34.621094-77.179688 77.179688-77.179688h83.550781c5.523437 0 10-4.476562 10-10s-4.476563-10-10-10h-83.550781c-53.585938 0-97.179688 43.59375-97.179688 97.179688 0 50.949218 39.410156 92.859374 89.347656 96.859374l-36.207031 92.875h-16.640625c-5.523438 0-10 4.480469-10 10v37.792969c0 5.519531 4.476562 10 10 10h130.898438c5.523437 0 10-4.480469 10-10v-36.050781l14.425781-40.164062h48.816406c3.464844 0 6.683594-1.792969 8.507813-4.742188 1.820312-2.949219 1.984374-6.632812.433593-9.730469-4.082031-8.15625-6.066406-19.554687-5.742187-32.960937.191406-7.980469-2.234375-15.605469-6.890625-21.941406 17.886719-6.140626 33.429687-17.359376 44.902343-31.933594l52.484376-9.980469v17.4375c0 5.523437 4.476562 10 10 10 5.519531 0 10-4.476563 10-10v-21.238281l12.460937-2.371094v13.609375c0 5.523437 4.476563 10 10 10 5.519531 0 10-4.476563 10-10v-17.414063l32.410156-6.164062c9.65625 11.433594 24.085938 18.71875 40.191407 18.71875 29.003906 0 52.601562-23.597656 52.601562-52.605469 0-29.003906-23.597656-52.597656-52.601562-52.597656zm-348.707032 149.78125h82.917969l-33.246094 92.558594h-85.757812zm46.707032 130.347656h-110.898438v-17.789062h110.898438zm41.609374-86.210937 15.359376-42.761719c1.84375.816406 3.535156 1.988281 4.988281 3.480469 3 3.070312 4.59375 7.105468 4.488281 11.359375-.25 10.320312.640625 19.65625 2.648438 27.917969h-27.484376zm96.320313-104.234375c4.171875-10.085938 6.597656-20.835938 7.175781-31.910157.191406-3.621093.203125-7.265624-.03125-10.886718-.628906-10.878906-3.039062-21.445313-7.144531-31.371094l39.007813 7.417969v59.332031zm59.007813-11.21875v-51.726563l12.460937 2.371094v46.984375zm54.769531-10.417969-22.308594 4.242188v-39.378907l22.308594 4.246094c-.21875.714844-.417969 1.433594-.605469 2.15625-2.453125 9.390625-2.238281 19.457031.605469 28.734375zm50.292969 17.15625c-11.75 0-22.066407-6.25-27.804688-15.601562-6.328125-10.332032-6.324219-23.667969 0-34.003907 5.738281-9.347656 16.054688-15.597656 27.804688-15.597656 17.976562 0 32.601562 14.625 32.601562 32.601563 0 17.976562-14.625 32.601562-32.601562 32.601562zm0 0"/><path d="m66.929688 97.632812c1.5625.886719 3.257812 1.308594 4.933593 1.308594 3.480469 0 6.859375-1.820312 8.703125-5.0625l19.242188-33.863281c2.726562-4.800781 1.046875-10.902344-3.753906-13.632813-4.804688-2.730468-10.90625-1.050781-13.636719 3.753907l-19.242188 33.859375c-2.726562 4.804687-1.046875 10.910156 3.753907 13.636718zm0 0"/><path d="m112.222656 98.941406c3.480469 0 6.859375-1.820312 8.703125-5.0625l19.242188-33.863281c2.726562-4.800781 1.046875-10.902344-3.753907-13.632813-4.804687-2.730468-10.90625-1.050781-13.636718 3.753907l-19.242188 33.859375c-2.726562 4.804687-1.046875 10.90625 3.753906 13.636718 1.5625.886719 3.257813 1.308594 4.933594 1.308594zm0 0"/><path d="m213 15.945312c1.628906 3.902344 5.632812 6.417969 9.863281 6.148438 4.121094-.265625 7.726563-3.128906 8.9375-7.074219 1.226563-4.003906-.273437-8.511719-3.664062-10.96875-3.269531-2.371093-7.75-2.546875-11.183594-.421875-4.121094 2.550782-5.78125 7.84375-3.953125 12.316406zm0 0"/></svg>