<svg height="512" viewBox="0 0 64 64" width="512" xmlns="http://www.w3.org/2000/svg"><g id="Icons"><g><g><path d="m54.4 55.539c1.48 2.21-.58 5.04-3.11 4.36-1.29-.35-2.12-1.52-2.11-2.79l-35.84-10.03c-.62 1.11-1.93 1.71-3.22 1.36-2.54-.67-2.91-4.15-.52-5.32-1.48-2.21.58-5.04 3.11-4.36 1.29.35 2.12 1.52 2.11 2.79l35.84 10.02c.62-1.1 1.93-1.7 3.22-1.36 2.54.68 2.91 4.16.52 5.33z" fill="#f0f0f0"/></g><path d="m44.49 49.839-10.64 2.98-14.34-4.01 10.63-2.98z" fill="#d2d2d2"/><path d="m50 21.999c0 4.78-1.87 9.11-4.91 12.33-.7.74-1.09 1.71-1.09 2.73v.94c0 2.21-1.79 4-4 4h-16c-2.21 0-4-1.79-4-4v-.94c0-1.01-.38-1.98-1.08-2.72-3.04-3.22-4.92-7.56-4.92-12.34 0-9.81 7.98-18 18-18 9.94 0 18 8.06 18 18z" fill="#f0f0f0"/><circle cx="24" cy="20.999" fill="#01325a" r="4"/><circle cx="40" cy="20.999" fill="#01325a" r="4"/><g fill="#d2d2d2"><path d="m28 36.999v5h-2v-5c0-.55.45-1 1-1s1 .45 1 1z"/><path d="m38 36.999v5h-2v-5c0-.55.45-1 1-1s1 .45 1 1z"/><path d="m33 36.999v5h-2v-5c0-.55.45-1 1-1s1 .45 1 1z"/></g><path d="m34 29.508c0 1.105-.895 0-2 0s-2 1.105-2 0 .895-3.509 2-3.509 2 2.404 2 3.509z" fill="#01325a"/><g><path d="m54.397 43.117c1.483-2.21-.573-5.035-3.108-4.357-1.288.345-2.124 1.515-2.114 2.789l-35.831 10.025c-.627-1.109-1.936-1.705-3.224-1.361-2.535.678-2.905 4.153-.517 5.327-1.484 2.213.577 5.034 3.108 4.357 1.288-.345 2.124-1.515 2.114-2.789l35.832-10.025c.627 1.109 1.936 1.705 3.224 1.361 2.534-.679 2.905-4.153.516-5.327z" fill="#f0f0f0"/></g></g></g></svg>