<svg enable-background="new 0 0 36 36" height="512" viewBox="0 0 36 36" width="512" xmlns="http://www.w3.org/2000/svg"><g id="BG"><g><path d="m3.442 23.883c6.061 3.333 8.497 8.761 11.417 10.367 2.921 1.606 9.978 3.299 17.366-10.137s.221-19.945-2.992-21.712c-15.042-8.27-36.525 15.58-25.791 21.482z" fill="#efefef"/></g></g><g id="effect"><g><g><path d="m19.875 4.062h2v1h-2z" fill="#a4afc1"/></g><g><path d="m14.125 4.062h2v1h-2z" fill="#a4afc1"/></g><g><path d="m17.625.562h1v2h-1z" fill="#a4afc1"/></g></g><g><path d="m6.75 30.5c-.827 0-1.5-.673-1.5-1.5s.673-1.5 1.5-1.5 1.5.673 1.5 1.5-.673 1.5-1.5 1.5zm0-2c-.276 0-.5.224-.5.5s.224.5.5.5.5-.224.5-.5-.224-.5-.5-.5z" fill="#a4afc1"/></g></g><g id="color"><g><circle cx="18" cy="18" fill="#f3f3f1" r="11.25"/></g></g><g id="shadow"><g><path d="m9 18c0-5.833 4.44-10.629 10.125-11.193-.37-.037-.745-.057-1.125-.057-6.213 0-11.25 5.037-11.25 11.25s5.037 11.25 11.25 11.25c.38 0 .755-.02 1.125-.057-5.685-.564-10.125-5.36-10.125-11.193z" fill="#d5dbe1"/></g></g><g id="regular"><g><path d="m18 30c-6.617 0-12-5.383-12-12s5.383-12 12-12 12 5.383 12 12-5.383 12-12 12zm0-22.5c-5.79 0-10.5 4.71-10.5 10.5s4.71 10.5 10.5 10.5 10.5-4.71 10.5-10.5-4.71-10.5-10.5-10.5z"/></g><g><g><path d="m21.75 13.025h1.5v4.95h-1.5z" transform="matrix(.707 -.707 .707 .707 -4.37 20.45)"/></g><g><path d="m20.025 14.75h4.95v1.5h-4.95z" transform="matrix(.707 -.707 .707 .707 -4.37 20.45)"/></g></g><g><g><path d="m12.75 13.025h1.5v4.95h-1.5z" transform="matrix(.707 -.707 .707 .707 -7.006 14.086)"/></g><g><path d="m11.025 14.75h4.95v1.5h-4.95z" transform="matrix(.707 -.707 .707 .707 -7.006 14.086)"/></g></g></g></svg>