<svg id="Capa_1" enable-background="new 0 0 512.912 512.912" height="512" viewBox="0 0 512.912 512.912" width="512" xmlns="http://www.w3.org/2000/svg"><g id="XMLID_4999_"><g id="XMLID_112_"><g id="XMLID_5069_"><g><path d="m423.818 462.857h-47.742v-257.015l23.871-63.833 23.871 63.833z" fill="#72859d"/></g></g><g id="XMLID_5073_"><g><path d="m280.327 462.857h-47.742v-377.612l23.871-63.833 23.871 63.833z" fill="#72859d"/></g></g><g id="XMLID_5071_"><g><path d="m208.581 462.857h95.749v42.555h-95.749z" fill="#72859d"/></g></g><g id="XMLID_5065_"><g><path d="m352.072 462.857h95.749v42.555h-95.749z" fill="#72859d"/></g></g><g id="XMLID_5077_"><g><path d="m136.836 462.857h-47.742v-257.015l23.871-63.833 23.871 63.833z" fill="#72859d"/></g></g><g id="XMLID_5096_"><g><path d="m110.372 441.579v-231.888l15.087-34.271-12.494-33.411-23.871 63.833v257.015h47.742v-21.278z" fill="#536275"/></g></g><g id="XMLID_5142_"><g><path d="m253.929 441.579v-352.485l15.088-34.272-12.494-33.41-23.871 63.833v377.612h47.741v-21.278z" fill="#536275"/></g></g><g id="XMLID_5143_"><g><path d="m397.487 441.579v-231.888l15.087-34.271-12.494-33.411-23.871 63.833v257.015h47.742v-21.278z" fill="#536275"/></g></g><g id="XMLID_5076_"><g><path d="m65.09 462.857h95.749v42.555h-95.749z" fill="#72859d"/></g></g><g id="XMLID_5141_"><g><path d="m65.09 462.857h21.278v42.555h-21.278z" fill="#536275"/></g></g><g id="XMLID_5139_"><g><path d="m208.581 462.857h21.278v42.555h-21.278z" fill="#536275"/></g></g><g id="XMLID_5140_"><g><path d="m352.072 462.857h21.278v42.555h-21.278z" fill="#536275"/></g></g></g><g id="XMLID_493_"><path id="XMLID_1538_" d="m144.336 396.397h-15v58.959h-32.742v-248.157l16.371-43.777 16.371 43.777v173.174h15v-175.887l-31.371-83.889-31.371 83.889v250.871h-24.004v57.555h110.75v-57.555h-24.004zm9.004 73.96v27.555h-80.75v-27.555h9.004 62.742z"/><path id="XMLID_1541_" d="m287.827 83.889-31.371-83.889-31.371 83.889v57.177h15v-54.464l16.371-43.777 16.371 43.777v368.755h-32.742v-298.266h-15v298.266h-24.003v57.555h110.749v-57.555h-24.003v-371.468zm9.004 386.468v27.555h-80.749v-27.555h9.003 62.742z"/><path id="XMLID_1544_" d="m431.318 455.357v-74.983h-15v74.983h-32.742v-248.158l16.371-43.777 16.371 43.777v157.282h15v-159.995l-31.371-83.889-31.371 83.889v250.871h-24.004v57.555h110.75v-57.555zm9.004 42.555h-80.75v-27.555h9.004 62.742 9.004z"/></g></g></svg>